<svg xmlns="http://www.w3.org/2000/svg" viewBox="0 0 2401.21 2159.82">
  <defs>
    <style>
      .cls-1 {
        fill: #56b894;
      }
    </style>
  </defs>
  <title>Ativo 2</title>
  <g id="Camada_2" data-name="Camada 2">
    <g id="Camada_1-2" data-name="Camada 1">
      <g>
        <g>
          <path class="cls-1" d="M1161.76,3.7C1085.22,20,518.39,34.15,566.42,227.45c52.13,209.76,1241.81,272.4,12.5,633.34-1262.44,370.66-147,1225.25,401,1299a4.92,4.92,0,0,1,2.56-1,5.54,5.54,0,0,1,4.68-6.5c13-1.6,26.06-1.64,39.13-1.37,6.14,0,12.3.21,18.45.46,16.76.35,33.52.18,50.28.18q102.87,0,205.68-1.48,19.82-.29,39.64-.42a5,5,0,0,1,3.94-2.41c5.33-.26,10.67-.43,16-.56a4.35,4.35,0,0,1,2.72-.88c3.62,0,7.22.31,10.81.68,15.22-.09,30.45.22,45.68.65q26.13.75,52.27,1.4a6.13,6.13,0,0,1,5-4.9c16.74-2.07,33.64-1.87,50.41-3.58,15.89-1.61,31.22-5.43,47.28-6,14.59-.55,29.19.16,43.76,1a400.42,400.42,0,0,1,43.17,4.19c18.89,3.1,37.45,7.1,56.25,9.79,41.87-.66,83.74-1.9,125.61-2.42,3.8-.05,5.35,3.4,4.67,6.26,9-.45,17.91-.89,26.89-.95L1878.92,2.45Z"/>
          <path class="cls-1" d="M1548.16,2148a5,5,0,0,1,.15-1.27l-7.09,1.19,5.07.08Z"/>
          <path class="cls-1" d="M1877.49,2151.88l35.23.11q10.15-.28,20.32,0h3.13a122.91,122.91,0,0,1,20.08-1.58c0-.15,0-.3,0-.45-3.57-2.44-2.07-9.42,2.91-9.13a272.37,272.37,0,0,1,27.07,3.07c4.54.24,9.06.53,13.52.53h49.62c29.65,0,59.3.09,88.95-.19,29.91-.28,59.83-.65,89.73.63,14.82.63,29.63,1.67,44.37,3.31,14.18,1.58,28.2,4,42.47,4.64,28.07,1.28,56.13-1.14,84.19-1.2h.06V0h-541V2152.35C1864.59,2152.07,1871,2151.86,1877.49,2151.88Z"/>
        </g>
        <path class="cls-1" d="M1473.38,2152.54a4.17,4.17,0,0,1-1.39-1.67h-5.88v1.88Z"/>
        <path class="cls-1" d="M1470.61,2152.62v-7.69h-85V2148a130.81,130.81,0,0,0,21.85,1.43c13-.53,26.48-2.49,38.88,2.37a5.64,5.64,0,0,1,1.42.83c5.08.12,10.15.19,15.22.25Q1466.82,2152.73,1470.61,2152.62Z"/>
        <rect class="cls-1" x="982.09" y="2147.99" width="1416.96" height="11.52"/>
        <rect class="cls-1" x="1292.05" y="2036.39" width="1107" height="115.24"/>
        <rect class="cls-1" x="2108.53" y="1712.39" width="292.68" height="335.88"/>
      </g>
    </g>
  </g>
</svg>
