<svg id="Camada_1" data-name="Camada 1" xmlns="http://www.w3.org/2000/svg" viewBox="0 0 118.44 100">
  <defs>
    <style>
      .cls-1 {
        fill: #a0626b;
      }

      .cls-2 {
        fill: #e7e6e6;
      }

      .cls-3 {
        fill: #cdcccc;
      }

      .cls-4 {
        fill: #302f42;
      }

      .cls-5 {
        fill: #403e56;
      }

      .cls-6 {
        fill: #fff;
      }

      .cls-7 {
        fill: #56b894;
      }
    </style>
  </defs>
  <title>whellchair</title>
  <g>
    <path class="cls-1" d="M34.33,43.79a2.31,2.31,0,0,1,3.25.43,2.39,2.39,0,0,1,.21.34l8.15-1.17-1.82,3.87-7.46.52a2.33,2.33,0,0,1-2.33-4Z" transform="translate(18.44)"/>
    <path id="f46f374a-d96c-4b13-8ac2-d4e65a9f3323" class="cls-2" d="M100,71.15c-.24.93-5.47,20.11-20.84,27.83-.64.32-1.3.63-2,.91L77,99.64l-.18-.28.25,0a1.17,1.17,0,0,0,1.33-.66c5.36-2.55,9.36-12.15,9.36-23.57a43.26,43.26,0,0,0-1.54-11.76l.17-.78.52-2.34c.59-1.4,1.17-2.79,1.71-4.14,3-7.34,5-13.65,4.61-16.54.18,1.13,3.79,24.09-5.46,44.64C93.58,79.14,99.22,73.68,100,71.15Z" transform="translate(18.44)"/>
    <path id="e647250d-3047-4512-a638-782849942d51" class="cls-3" d="M46.83,50.75c-4.57,0-8.58,4.78-10.79,11.91-.15.5-.3,1-.44,1.53a44.48,44.48,0,0,0-1.37,11.19C34.23,89,39.88,100,46.83,100S59.44,89,59.44,75.38,53.78,50.75,46.83,50.75Zm0,48.86c-6.73,0-12.21-10.87-12.21-24.23A44.3,44.3,0,0,1,36,64.15q.2-.74.42-1.44c2.15-6.94,6-11.56,10.4-11.56,6.74,0,12.22,10.87,12.22,24.23S53.57,99.61,46.83,99.61Z" transform="translate(18.44)"/>
    <path id="b6e0ee78-0fc9-4fd9-a6a7-4c72f1af04f6" class="cls-3" d="M49.86,89.61c-2.41,0-4.3-6.25-4.3-14.23s1.89-14.24,4.3-14.24,4.3,6.25,4.3,14.24S52.27,89.61,49.86,89.61Zm0-28.08c-2.12,0-3.91,6.34-3.91,13.85s1.79,13.84,3.91,13.84,3.91-6.34,3.91-13.84S52,61.53,49.86,61.53Z" transform="translate(18.44)"/>
    <polygon class="cls-1" points="60.58 96.05 56.98 96.05 55.27 82.16 60.58 82.16 60.58 96.05"/>
    <path class="cls-4" d="M43.06,99.54H31.45v-.15A4.52,4.52,0,0,1,36,94.87h7.09Z" transform="translate(18.44)"/>
    <polygon class="cls-1" points="49.83 96.05 46.23 96.05 45.67 85.46 49.83 85.46 49.83 96.05"/>
    <path class="cls-4" d="M32.31,99.54H20.7v-.15a4.52,4.52,0,0,1,4.52-4.52h7.09Z" transform="translate(18.44)"/>
    <ellipse id="b1b1c9f4-d54e-4592-9c63-445df23f17cb" class="cls-3" cx="68.79" cy="75.38" rx="1.66" ry="3.27"/>
    <path id="f44e941a-b66c-4d88-a721-24b51d5ad9fd" class="cls-5" d="M49.58,26.72l23.93-.1V37.17L49.58,38.25Z" transform="translate(18.44)"/>
    <path id="b58f069a-d623-47b5-892e-f9ab7808a08c" class="cls-3" d="M23.87,62.49l-.39,0L24.66,41H48.88v.4H25Z" transform="translate(18.44)"/>
    <path id="e22ea18d-f293-4a33-a73b-ed60e8421477" class="cls-5" d="M65.15,62.51c-.14.47-.28,1-.41,1.44l-.41,0L51.62,65.41,22.5,62.48l30.29-1.56,12,1.54Z" transform="translate(18.44)"/>
    <path id="a6699402-999b-4e6e-ad90-ab978138004c" class="cls-4" d="M43.55,52.3l-.71,2.06s-11.71-3.58-13.69,3.78S27,90.54,27,90.54l4.88-.2,4.86-25.12,23.37-3.68L59.4,48.43Z" transform="translate(18.44)"/>
    <path id="a235f650-5062-4012-8f3a-261ad2de0917" class="cls-4" d="M53.09,52.42s-16-3.33-17.2,4.69,1.5,33.23,1.5,33.23l4.69-.19s5.34-22.1,3.39-27.57l13.22-.82a9.08,9.08,0,0,0,8.55-8.45c.1-1.75-.33-3.34-1.84-4.22-4.69-2.73-13.29-2.73-13.29-2.73Z" transform="translate(18.44)"/>
    <path id="f2afbaa9-bfb8-4b72-b445-b392cea48dff" class="cls-5" d="M73.7,40h-.39V25.09l6.31,1.83-.11.38L73.7,25.61Z" transform="translate(18.44)"/>
    <path id="f343b9ef-6bce-40be-9e20-7f308a058c8b" class="cls-3" d="M86.4,62.64c-2.2-7.23-6.23-12.08-10.84-12.08S67,55.33,64.77,62.46c-.16.5-.3,1-.44,1.54A44.81,44.81,0,0,0,63,75.18C63,88.76,68.61,99.8,75.56,99.8A6.38,6.38,0,0,0,77,99.64c4.69-1,8.6-7.15,10.28-15.44a45.51,45.51,0,0,0,.87-9A43.46,43.46,0,0,0,86.4,62.64Zm-8,36.11a6.54,6.54,0,0,1-2.85.66c-6.74,0-12.21-10.87-12.21-24.23A44.3,44.3,0,0,1,64.74,64c.13-.49.27-1,.41-1.44C67.3,55.58,71.16,51,75.56,51c4.58,0,8.58,5,10.67,12.47a43.26,43.26,0,0,1,1.54,11.76C87.77,86.6,83.77,96.2,78.41,98.75Z" transform="translate(18.44)"/>
    <path id="a505ea39-30ac-48ca-ba3a-e75ccd21a515" class="cls-3" d="M78.59,89.42c-2.41,0-4.3-6.26-4.3-14.24S76.18,61,78.59,61s4.3,6.25,4.3,14.23S81,89.42,78.59,89.42Zm0-28.08c-2.12,0-3.91,6.34-3.91,13.84S76.47,89,78.59,89s3.91-6.34,3.91-13.85-1.79-13.84-3.91-13.84Z" transform="translate(18.44)"/>
    <ellipse id="f03d9ad0-0c0f-41ab-80cb-93d2547a3abd" class="cls-3" cx="97.52" cy="75.18" rx="1.66" ry="3.27"/>
    <path id="a8e6080c-61c5-4f01-aa67-7aa96f625933" class="cls-5" d="M76.44,24.76l4.1,1.57-.78,2.15-3.32-1.37Z" transform="translate(18.44)"/>
    <path id="a2eee96a-6a4b-41e9-a0b3-a910f08ccb6d" class="cls-3" d="M30.32,40v3.12H42V40.21Z" transform="translate(18.44)"/>
    <path id="b17f412c-8414-4216-b478-6b435b114bf1" class="cls-2" d="M59,24.46A13.91,13.91,0,0,1,58.77,27L57.6,43.67,45.83,47.06l-3.47,1-.16-.92-.59-3.43-.18-1.07,4.13-.74,6.71-1.21,1.58-19.34s4.74,0,4.87.56A10.41,10.41,0,0,1,59,24.46Z" transform="translate(18.44)"/>
    <path id="eea5ba4a-1a26-4f35-9e5a-0b080053be04" class="cls-4" d="M69.6,4.62A8.55,8.55,0,0,0,63.35.11,8,8,0,0,0,61.65,0a8.56,8.56,0,0,0-8,7.13.68.68,0,0,1,0,.15v.08l-1.28,8.37.9.14,3.5.53,7.33,1.12,5.11.78,1.28-8.38a8.68,8.68,0,0,0-.87-5.32Z" transform="translate(18.44)"/>
    <circle id="ab090656-7648-45ea-8708-e37f087545f2" class="cls-1" cx="78.95" cy="8.79" r="6.43"/>
    <path id="a425a037-4ce3-4f59-8323-6397659becfd" class="cls-2" d="M68.25,20.81,68,34.32l-.17.19C65.16,37.6,64.64,42,64.74,46.25c0,.46,0,.93.06,1.4-2,.86-4,1.76-6.06,2.47l-1.19.39c-3.29,1-6.49,1.4-9.11.2a7.64,7.64,0,0,1-2.52-1.88l-.09-1.77,2.38-4.57-.39-5.67c-2.42-6.1.13-5.88,2.07-13.8a3.43,3.43,0,0,1,2.43-1.78L53.85,21l10.58-.55,3.32.18Z" transform="translate(18.44)"/>
    <path id="a05937e9-e548-4ea7-a2f8-3fd8429d5ba2" class="cls-4" d="M68.77,4.63,66.39,9.48,52.59,7.12A8.66,8.66,0,0,1,68.77,4.63Z" transform="translate(18.44)"/>
    <path id="b94b87bb-a7a5-4983-8e36-464048415619" class="cls-3" d="M40,38.49a.62.62,0,0,0-.78-.08L34.47,41.5a.61.61,0,0,0-.18.86.39.39,0,0,0,.08.1l12.06,12a.61.61,0,0,0,.88,0h0l4-4.09a.63.63,0,0,0,0-.88Z" transform="translate(18.44)"/>
    <path id="bc604b2a-3847-42fd-870e-92d398356424" class="cls-6" d="M35.4,41.83l.5-.32a.47.47,0,0,0,.67.62L39.74,40a.46.46,0,0,0,.12-.65.5.5,0,0,0-.24-.19l.25-.16a.17.17,0,0,1,.21,0L50.77,49.47a.17.17,0,0,1,0,.24h0L46.88,53.5a.16.16,0,0,1-.23,0L35.38,42.09a.16.16,0,0,1,0-.24,0,0,0,0,1,0,0Z" transform="translate(18.44)"/>
    <path id="ac762fa2-90bb-41d8-a885-991bc012af8f" class="cls-7" d="M47.73,47.16l-3.27,3.08-7.8-7.69,4-2.58Z" transform="translate(18.44)"/>
    <path id="e480653a-af79-4e16-8c94-accaff2ee601" class="cls-2" d="M37,44.45a.14.14,0,0,0,0-.17l-.69-.68a.11.11,0,0,0-.16.16l.68.69A.14.14,0,0,0,37,44.45Z" transform="translate(18.44)"/>
    <path id="a653f458-f153-4835-a375-e0a32b4db210" class="cls-2" d="M38.11,45.43l-.68-.68a.11.11,0,0,0-.16.16h0l.68.68a.11.11,0,1,0,.16-.16Z" transform="translate(18.44)"/>
    <circle id="ab42e678-7a46-401a-bb83-28a225d9adcf" class="cls-7" cx="66.1" cy="49.81" r="0.77"/>
    <rect id="aebaa33f-6c3c-4439-83da-81dea445dad2" class="cls-5" y="99.55" width="118.44" height="0.39"/>
    <path class="cls-1" d="M50,50.45a2.32,2.32,0,0,1,3.27-.26,2.54,2.54,0,0,1,.28.29l7.71-2.86-1,4.16-7.18,2.08A2.33,2.33,0,0,1,50,50.45Z" transform="translate(18.44)"/>
    <path id="be70e64b-b2b4-45df-8b09-f0b4f9da8dca" class="cls-2" d="M62,57.12l-5-9.49,10.85-2L67.75,21V20.6A10,10,0,0,1,74.39,32L73.22,48.66Z" transform="translate(18.44)"/>
    <path id="ba347e27-d543-4baf-ab12-9b56e5d70732" class="cls-3" d="M60.22,41.57V44.7H71.86V41.78Z" transform="translate(18.44)"/>
    <path id="bcd40c99-3e4f-4f1f-9eeb-690b177fe524" class="cls-3" d="M74.09,51l-.19-8H55.72l-.58,21.5h-.39l.59-21.88H74.28v.19l.19,8.2Z" transform="translate(18.44)"/>
  </g>
</svg>
